# xmcd
#
# Track frame offsets: 
#        150
#        15468
#        29006
#        44032
#        57762
#        74601
#        93885
#        107264
#        124672
#        143640
#        161205
#
# Disc length: 2352 seconds
#
# Revision: 0
# Processed by: cddbd v1.5.1PL2 Copyright (c) Steve Scherf et al.
# Submitted via: ExactAudioCopy v0.95b3
#
DISCID=93092e0b
DTITLE=West of Nowhere - West of Nowhere
DYEAR=2004
DGENRE=Country
TTITLE0=Where Her Memory Lives
TTITLE1=I Didn't I Swear
TTITLE2=Oh Me Of Little Faith
TTITLE3=Too Many Irons
TTITLE4=Heavy Rain
TTITLE5=Let Me Be The Man Your Life
TTITLE6=Get Right
TTITLE7=Even When It Rains
TTITLE8=I'd Fall For You
TTITLE9=Somewhere I Wanna Go
TTITLE10=Goin To A Fire
EXTD=
EXTT0=
EXTT1=
EXTT2=
EXTT3=
EXTT4=
EXTT5=
EXTT6=
EXTT7=
EXTT8=
EXTT9=
EXTT10=
PLAYORDER=
